<svg id="Layer_1" data-name="Layer 1" xmlns="http://www.w3.org/2000/svg" xmlns:xlink="http://www.w3.org/1999/xlink" viewBox="0 0 67 67"><defs><style>.cls-1{fill:url(#linear-gradient);}.cls-2{fill:url(#linear-gradient-2);}.cls-3{fill:url(#linear-gradient-3);}.cls-4{fill:url(#linear-gradient-4);}.cls-5{fill:url(#linear-gradient-5);}.cls-6{fill:#fff;opacity:0.01;}</style><linearGradient id="linear-gradient" x1="34.11" y1="29.41" x2="34.11" y2="46.55" gradientUnits="userSpaceOnUse"><stop offset="0.03" stop-color="#1377c3" stop-opacity="0.55"/><stop offset="1" stop-color="#47b5ab" stop-opacity="0.5"/></linearGradient><linearGradient id="linear-gradient-2" x1="34.09" y1="13.51" x2="34.09" y2="63.14" xlink:href="#linear-gradient"/><linearGradient id="linear-gradient-3" x1="34.08" y1="22.08" x2="34.08" y2="54.88" xlink:href="#linear-gradient"/><linearGradient id="linear-gradient-4" x1="37.96" y1="7.81" x2="37.96" y2="18.59" xlink:href="#linear-gradient"/><linearGradient id="linear-gradient-5" x1="33.5" y1="0" x2="33.5" y2="50.97" xlink:href="#linear-gradient"/></defs><path class="cls-1" d="M34.11,46.55c3.86,0,6.89-2.73,6.89-6.2,0-5.17-4.56-9.57-5.48-10.42a2.23,2.23,0,0,0-1.41-.52,2.15,2.15,0,0,0-1.42.54c-1.28,1.2-5.46,5.49-5.46,10.4C27.23,43.82,30.25,46.55,34.11,46.55Zm0-2.95c-2.16,0-3.85-1.42-3.85-3.22,0-3.08,2.43-6.08,3.85-7.57C35.53,34.3,38,37.3,38,40.38,38,42.18,36.27,43.6,34.11,43.6Z"/><path class="cls-2" d="M58.53,13.51A1.47,1.47,0,0,0,57,15V55.39a4.75,4.75,0,0,1-4.74,4.74H15.89a4.74,4.74,0,0,1-4.74-4.74v-2.3a1.5,1.5,0,0,0-3,0v2.3a7.14,7.14,0,0,0,.08,1.08v.05L9,58.83l0,0a7.7,7.7,0,0,0,6.91,4.27H52.29a7.7,7.7,0,0,0,6.91-4.27l0,0,.71-2.33v0A7.24,7.24,0,0,0,60,55.37V15A1.47,1.47,0,0,0,58.53,13.51Z"/><path class="cls-3" d="M34.08,54.88a16.4,16.4,0,1,0-16.4-16.4A16.42,16.42,0,0,0,34.08,54.88Zm.06-30.4h0v.6a13.4,13.4,0,1,1-13.43,13.4,13.4,13.4,0,0,1,13.43-13.4Z"/><path class="cls-4" d="M25.86,18.59h24.2a3.47,3.47,0,0,0,3.44-3.44V11.29a3.45,3.45,0,0,0-3.45-3.45c-2.81,0-5.52.06-8,.06-3.53,0-6.11,0-8-.06l-2.72,0c-2.52,0-3.12.15-4,1L23.43,12.7a3.45,3.45,0,0,0,2.43,5.89Zm8-7.78,8,0c2.27,0,4.94,0,8.1,0a.43.43,0,0,1,.43.43v3.87a.43.43,0,0,1-.43.43H25.79a.36.36,0,0,1-.33-.24.42.42,0,0,1,.08-.48l3.88-3.88.06-.06a13.2,13.2,0,0,1,2-.08Z"/><path class="cls-5" d="M52.29,1.35H27A7.76,7.76,0,0,0,22,3.14l-.68-.68a2.77,2.77,0,0,0-2-.83,2.82,2.82,0,0,0-1.67.54L16.4.88A2.92,2.92,0,0,0,14.31,0a2.87,2.87,0,0,0-2.08.88l-4.4,4.4A2.92,2.92,0,0,0,7,7.4a2.86,2.86,0,0,0,.86,2L9.1,10.78a2.86,2.86,0,0,0,.28,3.69l.67.67a7.73,7.73,0,0,0-1.9,5.08V49.47a1.5,1.5,0,0,0,3,0V20.22a4.8,4.8,0,0,1,1.39-3.36l11.1-11.1A4.71,4.71,0,0,1,27,4.37H52.31A4.73,4.73,0,0,1,57,9.1v2.24a1.5,1.5,0,0,0,3,0V9.1A7.76,7.76,0,0,0,52.29,1.35ZM19.87,5.29,12.16,13l-.52-.52,7.71-7.71ZM10,7.45l4.33-4.33,1.22,1.22L11.2,8.67Z"/><rect class="cls-6" width="67" height="67"/></svg>