<svg id="Layer_1" data-name="Layer 1" xmlns="http://www.w3.org/2000/svg" xmlns:xlink="http://www.w3.org/1999/xlink" viewBox="0 0 67 67"><defs><style>.cls-1{fill:#fff;opacity:0.01;}.cls-2{fill-rule:evenodd;fill:url(#linear-gradient);}</style><linearGradient id="linear-gradient" x1="33.49" y1="200.03" x2="33.49" y2="240.88" gradientTransform="matrix(1, 0, 0, -1, 0, 241)" gradientUnits="userSpaceOnUse"><stop offset="0.03" stop-color="#1377c3" stop-opacity="0.55"/><stop offset="1" stop-color="#47b5ab" stop-opacity="0.5"/></linearGradient></defs><rect class="cls-1" width="67" height="67"/><g id="Layer_2" data-name="Layer 2"><g id="Layer_1-2" data-name="Layer 1-2"><path class="cls-2" d="M66.9,9.77a4,4,0,0,0-.06-1.09,2.36,2.36,0,0,0-1.49-1.37C65,7.22,64.14,7.4,64,7.13l-.42-1.6a5.67,5.67,0,0,0-2.13-2.91,5.45,5.45,0,0,0-3.74-1L57,1.7c-.92.24-1.84.86-3.21.63l-.86-.12A18,18,0,0,1,50.31.81,10,10,0,0,0,47.94.19a5,5,0,0,0-2.11.18c-.41.09-.83.21-1.21.33-.95.44-1.73,1.09-2.73,1.48a4,4,0,0,1-1,.15,5,5,0,0,1-3.65-1.1A8.87,8.87,0,0,0,34.17.16,5.25,5.25,0,0,0,32,.34a8.89,8.89,0,0,0-1.28.33c-1.19.56-1.9,1.36-3.38,1.66-1.9.35-3-.54-4-1.16a7.17,7.17,0,0,0-4-1l-.71.06A8.74,8.74,0,0,0,17,.64a26,26,0,0,1-2.91,1.54l-.86.12c-1.37.23-2.26-.39-3.21-.63l-.71,0a5,5,0,0,0-3.26.66A5.67,5.67,0,0,0,3.65,5.09l-.6,2c-.2.3-.95.09-1.36.18A2.09,2.09,0,0,0,.2,8.56a10.58,10.58,0,0,0-.08,2.73,2.94,2.94,0,0,0,.06,1c.2.51.86.86.94,1.37v4.83l.15,1.7a13.38,13.38,0,0,0,1.22,3.41c.41.8,1.48,3.17,2.82,2.25a1.33,1.33,0,0,0,.2-1.81,11,11,0,0,1-1.45-2.46A13.42,13.42,0,0,1,3.47,19a16,16,0,0,1,0-2.4,14.24,14.24,0,0,1,.06-2.79c.29-.21,1-.09,1.48-.09H8.6l14.6,0c.2.27.11.92.11,1.39a29.56,29.56,0,0,1,0,3.53l0,1.13L23,20.9a9.89,9.89,0,0,1-7.86,6.94,10.6,10.6,0,0,1-4.45-.21c-.74-.24-1.43-.62-2.14-.83a1.17,1.17,0,0,0-1.3.59c-.51,1.1.65,1.67,1.36,1.93.33.15.77.18.83.6l0,7.41c0,1-.15,2.41.3,3,.62.83,2.34.59,3.77.59a7,7,0,0,0,2.28-.12c1.22-.5.92-2.4.92-4,0-.47-.12-1.19.06-1.48.47-.12,1.1,0,1.63-.06h.95l4.06,0a9.91,9.91,0,0,1,2.2.12,5.71,5.71,0,0,1,.06,1.48c0,1.42-.3,3.17.56,3.8a5.59,5.59,0,0,0,2.64.29c1.52,0,3.15.27,3.77-.65a5.92,5.92,0,0,0,.24-2.61l0-5a8.27,8.27,0,0,1,0-2.29,1.54,1.54,0,0,1,.83-.06,8,8,0,0,1,2.46.12,10.31,10.31,0,0,1,.06,2.37v4.72c0,.89-.15,2.2.24,2.73.59.86,2.28.65,3.71.65a8.75,8.75,0,0,0,2.19-.06c1.45-.44,1-2.28,1-4.06a5.71,5.71,0,0,1,0-1.45c.15-.24.8-.06,1.13-.12,1.45-.24,2.78.41,3.56-.6a1,1,0,0,0,0-1.24c-.45-.6-1.37-.51-2.41-.51-1.87,0-4-.35-4.6,1a11.58,11.58,0,0,0-.11,1.19l0,2.37a3.58,3.58,0,0,1,0,1,7,7,0,0,1-2.38,0c-.2-.36,0-1.1-.06-1.63V32.05c0-.53-.14-1.42.12-1.78h8.69A12,12,0,0,0,51.05,30a6.06,6.06,0,0,0,3.53-3.83,6.46,6.46,0,0,0,.15-1.9c0-.27-.06-.71.12-.83a6,6,0,0,1,2.43.06,6,6,0,0,1,0,1.27V27l0,7.21V37.1a4,4,0,0,1,0,1.21,4.4,4.4,0,0,1-2.49,0,20.31,20.31,0,0,1,0-3.32,3.4,3.4,0,0,0-.06-1.1,1.71,1.71,0,0,0-.89-.92,5.13,5.13,0,0,0-2.34,0,1.39,1.39,0,0,0-.65.54,1.24,1.24,0,0,0,.77,1.72c.29.09.83-.06.92.23l0,1,0,2.38a4.35,4.35,0,0,0,.06,1.27c.47,1.16,2.76.83,4.36.83a5.25,5.25,0,0,0,1.84-.09c1.12-.47.89-1.81.89-3.38v-8.6c.09-.39,1-.77,1.27-1a14.48,14.48,0,0,0,2.52-2.55,12.5,12.5,0,0,0,1.87-3.74,24.5,24.5,0,0,0,.48-2.79v-5c.12-.57.74-.83,1-1.37A10.53,10.53,0,0,0,66.9,9.77ZM23.26,11.26H4c-.44,0-1.27.11-1.57-.09a2.76,2.76,0,0,1,0-1.4c.12-.2,1-.12,1.36-.12H7.53l10.71,0,3.18,0,1.39,0a.57.57,0,0,1,.39.06c.26.15.2,1.34.06,1.58Zm7.35,13.23V27l0,11.3a5.18,5.18,0,0,1-2.46.12c-.18-.12-.09-1.25-.09-1.57L28,34.07a1.45,1.45,0,0,0-.44-.74c-.71-.57-1.84-.42-3.09-.42H17.68c-1.4,0-2.49-.15-3.09.69-.41.59-.23,2.49-.23,3.5,0,.35.11,1.12-.06,1.33a7.16,7.16,0,0,1-2.41,0,6,6,0,0,1-.12-1.81v-4.3a8.93,8.93,0,0,1,.06-2c.09-.21.45-.15.72-.12a14.54,14.54,0,0,0,2,0l8.46,0a5.71,5.71,0,0,0,5-4.66c.15-.65-.09-1.51.09-2.16l.15-.09a9.79,9.79,0,0,1,2.31.06C30.67,23.63,30.61,24.1,30.61,24.49Zm30.8-.33c-.3.42-1,1.48-1.61,1.51l0,0c-.27-1.12.23-2.78-.15-3.76s-1.49-.83-2.79-.83l-1.57,0a9.35,9.35,0,0,0-1.9.11c-1.25.51-.51,2.14-.74,3.59a3.85,3.85,0,0,1-1.81,2.82c-1,.6-3.74.33-5.23.33H33c-.24-.33-.12-1.1-.12-1.66l0-4.1a1.34,1.34,0,0,0-.48-.77c-.83-.62-2.43-.09-3.71-.29a4.27,4.27,0,0,0-2.43.29c-.92.68-.35,2.49-.59,3.89a3.24,3.24,0,0,1-2.08,2.52,9,9,0,0,1-1.3.18,4.12,4.12,0,0,1-1.49,0l-.06,0v-.09c.42-.42.92-.74,1.31-1.19l1.07-1.21a11.88,11.88,0,0,0,2.19-4.69c.15-.71.24-1.28.33-2,.15-.86,0-1.9,0-2.76,0-.62-.18-2,.06-2.34H60.25l2.34,0c.24,0,.51-.09.69,0s.17.68.17,1.07l0,3.05A9.57,9.57,0,0,1,61.41,24.16Zm3.08-13a17.38,17.38,0,0,1-3,.06H25.75l0,0c-.06-.24-.12-1.49.06-1.58a5.91,5.91,0,0,1,1.39,0H31a3.36,3.36,0,0,0,1,0,1.11,1.11,0,0,0,.92-1.3c-.24-1-1.25-.95-2.55-.95l-4,0-14.09,0H7.41c-.59,0-1.21,0-1.81,0l-.06-.09c-.08-.24.15-.65.21-.86A3.17,3.17,0,0,1,8,4a3.67,3.67,0,0,1,2.49.32,7,7,0,0,0,3.05.33,7.68,7.68,0,0,0,1.64-.39C16.19,3.87,17,3.22,18,2.8A4.74,4.74,0,0,1,19,2.56l.54,0c2.28,0,3.05,1.13,4.65,1.75a7.1,7.1,0,0,0,1.58.36c2.76.45,4.33-1.25,6.11-1.93A5.12,5.12,0,0,1,33.1,2.5c2-.29,3.09.78,4.16,1.4a6.78,6.78,0,0,0,2.37.71h.95l.77,0A8.17,8.17,0,0,0,43,4.14c1.1-.48,1.9-1.31,3.24-1.58,2.64-.56,3.91,1,5.57,1.69a7.42,7.42,0,0,0,3.51.33c.92-.21,1.66-.59,2.61-.74,1.78-.3,3.53,1.72,3.53,3.26l-.06.09a10.16,10.16,0,0,1-2.14,0H54.88l-13.71,0H37.53a3.24,3.24,0,0,0-1.9.3,1,1,0,0,0-.48,1c.24,1.21,2,.95,3.41.95h1.78l1.64,0,16.79,0h4.12c.5,0,1.34-.11,1.66.12a4.1,4.1,0,0,1-.06,1.49Z"/></g></g></svg>