<svg id="Layer_1" data-name="Layer 1" xmlns="http://www.w3.org/2000/svg" xmlns:xlink="http://www.w3.org/1999/xlink" viewBox="0 0 67 67"><defs><style>.cls-1{fill:url(#linear-gradient);}.cls-2{fill:url(#linear-gradient-2);}.cls-3{fill:url(#linear-gradient-3);}.cls-4{fill:url(#linear-gradient-4);}.cls-5{fill:#fff;opacity:0.01;}</style><linearGradient id="linear-gradient" x1="11.47" y1="-279.11" x2="11.47" y2="-281.07" gradientTransform="translate(0 332.28)" gradientUnits="userSpaceOnUse"><stop offset="0.03" stop-color="#1377c3" stop-opacity="0.55"/><stop offset="1" stop-color="#47b5ab" stop-opacity="0.5"/></linearGradient><linearGradient id="linear-gradient-2" x1="55.47" y1="-279.11" x2="55.47" y2="-281.07" xlink:href="#linear-gradient"/><linearGradient id="linear-gradient-3" x1="33.5" y1="-272.77" x2="33.5" y2="-332.28" xlink:href="#linear-gradient"/><linearGradient id="linear-gradient-4" x1="33.46" y1="-299.59" x2="33.46" y2="-312.31" xlink:href="#linear-gradient"/></defs><path class="cls-1" d="M11.47,51.21a1,1,0,0,0-1,1,1,1,0,0,0,1,1,1,1,0,1,0,0-2Z"/><path class="cls-2" d="M55.47,51.21a1,1,0,1,0,1,1A1,1,0,0,0,55.47,51.21Z"/><path class="cls-3" d="M64.37,39H59.25a14.63,14.63,0,0,0,7.37-12.7,14.38,14.38,0,0,0-1.15-5.68,1,1,0,0,0-1.26-.51,1,1,0,0,0-.52,1.27,12.93,12.93,0,0,1,1,4.92,12.73,12.73,0,0,1-10,12.43V13.87a12.6,12.6,0,0,1,7.46,4.75,1,1,0,0,0,1.36.2,1,1,0,0,0,.19-1.36,14.65,14.65,0,0,0-9-5.55V8.74a1,1,0,0,0-1-1,1,1,0,0,0-1,1v2.93c-.22,0-.48,0-.73,0h-6.1V8.74a1,1,0,0,0-2,0v2.91H34.43V8.09A2.24,2.24,0,0,0,32.5,5.86V2.26A2.27,2.27,0,0,0,30.23,0h-8.6a2.26,2.26,0,0,0-2.26,2.26v3.6a2.25,2.25,0,0,0-1.94,2.23v3.58H15A14.64,14.64,0,0,0,7.76,39H2.64A2.27,2.27,0,0,0,.38,41.31v3.36a2.27,2.27,0,0,0,2.26,2.27H6.51a7.26,7.26,0,1,0,12,7.11,7.39,7.39,0,0,0,.24-1.82A7.18,7.18,0,0,0,16.42,47h5.71a1,1,0,0,0,1-1,1,1,0,0,0-1-1H2.63a.33.33,0,0,1-.32-.32V41.31A.33.33,0,0,1,2.63,41h61.7a.33.33,0,0,1,.31.32v3.35a.33.33,0,0,1-.31.31H26a1,1,0,0,0-1,1,1,1,0,0,0,1,1H50.5a7.27,7.27,0,1,0,10,0h3.93a2.27,2.27,0,0,0,2.26-2.27V41.29A2.31,2.31,0,0,0,64.37,39ZM9.77,57.26H9.9a5.28,5.28,0,0,1-.75-9.78,5.28,5.28,0,0,1,7.59,4.77,5.25,5.25,0,0,1-3.71,5h.07a4.88,4.88,0,0,1-1.67.28A5.08,5.08,0,0,1,9.77,57.26Zm11.57-55A.33.33,0,0,1,21.66,2h8.6a.33.33,0,0,1,.32.31V5.84H21.33ZM19.43,8.09a.33.33,0,0,1,.31-.32H32.22a.33.33,0,0,1,.32.32v3.56H19.43V8.09ZM43.94,39H15a12.71,12.71,0,0,1,0-25.42H43.94Zm8.76,0c-.63,0-6.15,0-6.83,0V36.89H52.7Zm0-4.07H45.87V33H52.7Zm0-3.88H45.87V29.13H52.7Zm0-3.86H45.87V25.26H52.7Zm0-3.9H45.87V21.37H52.7Zm0-3.88H45.87V17.49H52.7Zm0-3.89H45.87V13.61H52c.25,0,.48,0,.73,0Zm1.06,41.73H54a5.34,5.34,0,1,1,2.93,0h.16a4.88,4.88,0,0,1-1.67.28A5.18,5.18,0,0,1,53.76,57.26Z"/><path class="cls-4" d="M33.46,32.69a5.08,5.08,0,0,0,5.12-5c0-.86-.51-3-4.06-7.21a1.4,1.4,0,0,0-2.11,0c-3.54,4.2-4.06,6.32-4.06,7.21A5.07,5.07,0,0,0,33.46,32.69Zm0-10.47c1.93,2.37,3.19,4.51,3.19,5.44a3.19,3.19,0,0,1-6.37,0C30.31,26.73,31.56,24.59,33.49,22.22Z"/><rect class="cls-5" width="67" height="67"/></svg>