<svg id="Layer_1" data-name="Layer 1" xmlns="http://www.w3.org/2000/svg" xmlns:xlink="http://www.w3.org/1999/xlink" viewBox="0 0 67 67"><defs><style>.cls-1{fill-rule:evenodd;fill:url(#linear-gradient);}.cls-2{fill:#fff;opacity:0.01;}</style><linearGradient id="linear-gradient" x1="33.5" y1="-18.69" x2="33.5" y2="43" gradientTransform="matrix(1, 0, 0, -1, 0, 43)" gradientUnits="userSpaceOnUse"><stop offset="0.03" stop-color="#1377c3" stop-opacity="0.55"/><stop offset="1" stop-color="#47b5ab" stop-opacity="0.5"/></linearGradient></defs><path class="cls-1" d="M41.15,61.69C35.42,61.69,31,54.91,31,54.84l-.44-.69.44-.69c.05-.08,4.45-6.86,10.18-6.86,5.45,0,9.71,6.16,10.18,6.86l.44.69-.44.69C51.28,54.91,46.88,61.69,41.15,61.69Zm0-12.56c-3.24,0-6.21,3.26-7.33,4.66l-.3.38.3.38c1.12,1.4,4.09,4.66,7.33,4.66s6.21-3.26,7.33-4.66l.3-.38-.3-.38C47.36,52.39,44.39,49.13,41.15,49.13ZM19.36,55.4c-2.51,0-6-.47-8.21-2.71-4-4-2.39-11.95-2.38-12l.16-.8.81-.17a22,22,0,0,1,3.8-.34c2.51,0,6,.47,8.23,2.72,4.09,4.07,2.39,12,2.38,12l-.16.79-.83.16,0,0A20.11,20.11,0,0,1,19.36,55.4ZM13.54,41.82a18.89,18.89,0,0,0-2,.1l-.48,0-.06.48c-.15,1.4-.47,6.12,1.89,8.49,1.67,1.67,4.42,2,6.43,2a17.83,17.83,0,0,0,2.07-.13l.47,0,.06-.48c.15-1.39.47-6.12-1.9-8.49C18.39,42.16,15.6,41.82,13.54,41.82ZM51,42.41a18.59,18.59,0,0,1-3.82-.36l-.81-.16-.16-.83c-.25-1.36-1.31-8.32,2.38-12,2.25-2.26,5.71-2.74,8.21-2.74a19.31,19.31,0,0,1,3.82.36l.79.15.15.78c0,.09,1.72,8-2.35,12.06C57,41.93,53.5,42.41,51,42.41Zm5.79-13.62c-2,0-4.82.35-6.47,2-2.42,2.41-2.06,7.11-1.9,8.49l.06.48.48,0a19.23,19.23,0,0,0,2,.11c2,0,4.81-.35,6.46-2,2.31-2.28,2.1-6.7,1.9-8.49L59.28,29l-.48-.05A16.81,16.81,0,0,0,56.79,28.79ZM32.05,41.27c-.08-.05-6.83-4.49-6.85-10.18,0-5.46,6.16-9.72,6.86-10.18l.69-.44.69.44c.07.05,6.85,4.44,6.85,10.18,0,5.46-6.15,9.71-6.85,10.18l-.69.44Zm.29-17.51c-1.74,1.43-4.65,4.29-4.65,7.33,0,3.33,3.57,6.45,4.66,7.33l.38.31.38-.31c1.74-1.42,4.66-4.25,4.66-7.33,0-3.33-3.57-6.45-4.66-7.33l-.39-.31ZM15.28,32.69c-2.51,0-6-.47-8.19-2.73-4-4-2.4-11.95-2.38-12l.16-.79L5.64,17a21.48,21.48,0,0,1,3.83-.35c2.5,0,6,.48,8.21,2.72,4,4,2.4,12,2.38,12l-.16.79-.82.16,0,0A18.89,18.89,0,0,1,15.28,32.69ZM9.44,19.11c-.66,0-1.32,0-2,.1L7,19.26l0,.49c-.19,1.79-.37,6.2,1.89,8.48,1.65,1.65,4.45,2,6.5,2a18.75,18.75,0,0,0,2-.1l.49-.05,0-.49c.16-1.39.48-6.11-1.89-8.48C14.29,19.46,11.49,19.11,9.44,19.11ZM52,22.34c-5.74,0-10.14-6.78-10.18-6.85l-.44-.7.44-.69c0-.07,4.44-6.85,10.18-6.85,5.46,0,9.71,6.15,10.18,6.85l.43.69-.44.69C62.15,15.56,57.75,22.34,52,22.34ZM52,9.75c-3.25,0-6.21,3.26-7.34,4.66l-.3.38.31.38c1.41,1.74,4.24,4.66,7.33,4.66,3.33,0,6.45-3.57,7.33-4.66l.3-.38-.31-.38C57.93,12.67,55.09,9.75,52,9.75ZM27.18,16a19.88,19.88,0,0,1-3.82-.35l-.82-.16-.19-.78c-.25-1.38-1.29-8.33,2.38-12C27,.47,30.44,0,32.94,0a20.81,20.81,0,0,1,3.82.35l.85.17.15.77c.26,1.4,1.3,8.36-2.37,12C33.13,15.57,29.67,16,27.18,16ZM33,2.45c-2,0-4.81.35-6.46,2-2.31,2.28-2.1,6.69-1.9,8.48l.06.48.48.06a18.47,18.47,0,0,0,2,.11c2,0,4.83-.35,6.5-2,2.27-2.27,2.08-6.69,1.9-8.49l0-.48L35,2.56A19.23,19.23,0,0,0,33,2.45Z"/><rect class="cls-2" width="67" height="67"/></svg>