<svg id="Layer_1" data-name="Layer 1" xmlns="http://www.w3.org/2000/svg" xmlns:xlink="http://www.w3.org/1999/xlink" viewBox="0 0 67 67"><defs><style>.cls-1{fill:url(#linear-gradient);}.cls-2{fill:url(#linear-gradient-2);}.cls-3{fill:url(#linear-gradient-3);}.cls-4{fill:#fff;opacity:0.01;}</style><linearGradient id="linear-gradient" x1="24.88" y1="-282.25" x2="24.88" y2="-288.75" gradientTransform="translate(0 328.28)" gradientUnits="userSpaceOnUse"><stop offset="0.03" stop-color="#1377c3" stop-opacity="0.55"/><stop offset="1" stop-color="#47b5ab" stop-opacity="0.5"/></linearGradient><linearGradient id="linear-gradient-2" x1="21.72" y1="-277.98" x2="21.72" y2="-280.7" xlink:href="#linear-gradient"/><linearGradient id="linear-gradient-3" x1="33.5" y1="-261.66" x2="33.5" y2="-328.28" xlink:href="#linear-gradient"/></defs><path class="cls-1" d="M24,39.92a1.39,1.39,0,0,0-1.93,0,1.37,1.37,0,0,0,0,1.93l3.77,3.78a1.37,1.37,0,1,0,1.94-1.93Z"/><path class="cls-2" d="M21.72,47.58a1.39,1.39,0,0,0-1,.39,1.31,1.31,0,0,0-.39,1,1.39,1.39,0,0,0,.39,1,1.3,1.3,0,0,0,1,.39,1.43,1.43,0,0,0,1-.39,1.34,1.34,0,0,0,.39-1,1.44,1.44,0,0,0-.39-1A1.41,1.41,0,0,0,21.72,47.58Z"/><path class="cls-3" d="M63.25,22.56a9.39,9.39,0,0,0-12.76-2.48l1.69-1.69a10.78,10.78,0,1,0-15.26,0c1.73,1.73,1.78,4.68,1.64,6.29a13.29,13.29,0,0,1-.86,3.86c-8-6.84-19.76-6.73-27,.47A19.39,19.39,0,0,0,6,48.17l1.15,3c.09.19.19.39.26.58.66,1.68.29,5.25-5,12.62a1.37,1.37,0,0,0,.08,1.85,1.35,1.35,0,0,0,1.75.13c7.59-5.47,11.11-5.79,12.74-5.08A19.57,19.57,0,0,0,39.6,57.93a18.91,18.91,0,0,0,4.33-6.76l.8-3a20,20,0,0,0,.34-4.25,20.73,20.73,0,0,0-4.75-12.66,12.17,12.17,0,0,1,2.75-.05c1.3.14,3.68.58,4.83,2.19a9.41,9.41,0,0,0,7.67,4A9.22,9.22,0,0,0,61,35.64,9.4,9.4,0,0,0,63.25,22.56Zm-21,19.34-4.48-4.42a1.36,1.36,0,1,0-1.93,1.93l6.52,6.53A16.39,16.39,0,0,1,37.66,56a15.15,15.15,0,0,1-4,2.9l-7.78-7.78a1.39,1.39,0,0,0-1.93,0,1.37,1.37,0,0,0,0,1.93l6.94,7a16.77,16.77,0,0,1-4.84.71,17.57,17.57,0,0,1-8-1.93.3.3,0,0,0-.14-.05c-2.45-1-5.71-.42-10,2,2.35-4.29,3-7.59,2-10.05,0,0,0,0-.05-.1A17.56,17.56,0,0,1,8.37,38.77L11.5,41.9A1.37,1.37,0,1,0,13.44,40L9.32,35.86A15.27,15.27,0,0,1,12.66,31c.37-.38.73-.68,1.1-1a1.57,1.57,0,0,0,.2.25l4.12,4.12a1.39,1.39,0,0,0,1.93,0,1.37,1.37,0,0,0,0-1.93l-4-4a16.57,16.57,0,0,1,8.25-2.17,18.06,18.06,0,0,1,12.79,5.37A18.24,18.24,0,0,1,42.26,41.9Zm-1-16.35a3.92,3.92,0,0,0,0-.59c.28-3.57-.58-6.57-2.43-8.42A8.1,8.1,0,0,1,44.54,2.72a8,8,0,0,1,5.71,2.37,8.09,8.09,0,0,1,0,11.43Zm18.21,7.88a6.67,6.67,0,0,1-9.29-1.59c-1.3-1.85-3.72-3-6.81-3.34,4.65-3.27,8.37-5.89,8.41-5.94a6.66,6.66,0,0,1,7.69,10.87Z"/><rect class="cls-4" width="67" height="67"/></svg>