<svg id="Layer_1" data-name="Layer 1" xmlns="http://www.w3.org/2000/svg" xmlns:xlink="http://www.w3.org/1999/xlink" viewBox="0 0 67 67"><defs><style>.cls-1{fill:url(#linear-gradient);}.cls-2{fill:url(#linear-gradient-2);}.cls-3{fill:url(#linear-gradient-3);}.cls-4{fill:#fff;opacity:0.01;}</style><linearGradient id="linear-gradient" x1="29.7" y1="-196.95" x2="29.7" y2="-193.68" gradientTransform="matrix(1, 0, 0, -1, 0, -157)" gradientUnits="userSpaceOnUse"><stop offset="0.03" stop-color="#1377c3" stop-opacity="0.55"/><stop offset="1" stop-color="#47b5ab" stop-opacity="0.5"/></linearGradient><linearGradient id="linear-gradient-2" x1="29.7" y1="-208.85" x2="29.7" y2="-199.12" xlink:href="#linear-gradient"/><linearGradient id="linear-gradient-3" x1="33.5" y1="-222.12" x2="33.5" y2="-157" xlink:href="#linear-gradient"/></defs><path class="cls-1" d="M29.7,40a1.08,1.08,0,0,0,1.09-1.09V37.77a1.09,1.09,0,1,0-2.18,0v1.09A1.1,1.1,0,0,0,29.7,40Z"/><path class="cls-2" d="M29.7,51.85a1.08,1.08,0,0,0,1.09-1.09V43.21a1.09,1.09,0,1,0-2.18,0v7.55A1.09,1.09,0,0,0,29.7,51.85Z"/><path class="cls-3" d="M64.31,62.66a4.3,4.3,0,0,0,.18-.79l2-24a1.06,1.06,0,0,0-1-1.16H43.75a1.08,1.08,0,0,0-1.09,1.09v.09l2,24a2.77,2.77,0,0,0,.18.79h-12a7.5,7.5,0,0,0,2.27-5.39V33.54a30.1,30.1,0,0,0-9.74-22.17V8.51A4.32,4.32,0,0,0,24.29,0h-13a4.32,4.32,0,0,0-1.09,8.51v2.83A30.06,30.06,0,0,0,.49,33.5V57.29a7.43,7.43,0,0,0,2.27,5.39H.28v2.44H66.72V62.68H64.31Zm-.07-23.8-.37,4.33H45.31l-.37-4.33ZM46.84,61.68,45.49,45.37H63.68L62.33,61.68a1.1,1.1,0,0,1-.95,1H47.77A1.09,1.09,0,0,1,46.84,61.68ZM9.14,4.32a2.19,2.19,0,0,1,2.18-2.18h13A2.19,2.19,0,0,1,26.4,4.36a2.13,2.13,0,0,1-1.81,2.07c-.09,0-.2,0-.28,0h-13a.87.87,0,0,0-.28,0A2.11,2.11,0,0,1,9.14,4.32Zm2.9,8.3a1.07,1.07,0,0,0,.37-.79V8.67H23.23v3.16a1,1,0,0,0,.37.79,28,28,0,0,1,7.61,11.14,15.18,15.18,0,0,1-12.9-1A17.21,17.21,0,0,0,5.66,21,27.48,27.48,0,0,1,12,12.62ZM2.67,57.27V33.52a28.15,28.15,0,0,1,1.83-10,15.08,15.08,0,0,1,12.74,1.09,17.19,17.19,0,0,0,14.64,1.18A27.64,27.64,0,0,1,33,33.5V57.29a5.4,5.4,0,0,1-5.09,5.39H7.77A5.42,5.42,0,0,1,2.67,57.27Z"/><rect class="cls-4" width="67" height="67"/></svg>