<svg id="Layer_1" data-name="Layer 1" xmlns="http://www.w3.org/2000/svg" xmlns:xlink="http://www.w3.org/1999/xlink" viewBox="0 0 67 67"><defs><style>.cls-1,.cls-2,.cls-3{fill-rule:evenodd;}.cls-1{fill:url(#linear-gradient);}.cls-2{fill:url(#linear-gradient-2);}.cls-3{fill:url(#linear-gradient-3);}.cls-4{fill:#fff;opacity:0.01;}</style><linearGradient id="linear-gradient" x1="33.4" y1="-185.63" x2="33.4" y2="-157.3" gradientTransform="matrix(1, 0, 0, -1, 0, -133)" gradientUnits="userSpaceOnUse"><stop offset="0.03" stop-color="#1377c3" stop-opacity="0.55"/><stop offset="1" stop-color="#47b5ab" stop-opacity="0.5"/></linearGradient><linearGradient id="linear-gradient-2" x1="33.46" y1="-152.29" x2="33.46" y2="-149.66" xlink:href="#linear-gradient"/><linearGradient id="linear-gradient-3" x1="33.5" y1="-199.55" x2="33.5" y2="-133" xlink:href="#linear-gradient"/></defs><path class="cls-1" d="M45.16,41.55H39.29a7,7,0,0,0-4.54,1.63V41.55H38a7.15,7.15,0,0,0,7.13-7.13,1.33,1.33,0,0,0-1.32-1.32H39.28a7.19,7.19,0,0,0-2.2.34,7.3,7.3,0,0,0,.59-2.79,7.21,7.21,0,0,0-3.56-6.19,1.46,1.46,0,0,0-1.32,0,7.2,7.2,0,0,0-3.57,6.19,6.79,6.79,0,0,0,.6,2.79,7.23,7.23,0,0,0-2.2-.34H23.07a1.32,1.32,0,0,0-1.31,1.32,7.15,7.15,0,0,0,7.13,7.13h3.22v1.63a7,7,0,0,0-4.54-1.63H21.71a1.32,1.32,0,0,0-1.32,1.31A7.14,7.14,0,0,0,27.52,50h4.54v1.32a1.32,1.32,0,0,0,2.64,0V50h4.58a7.15,7.15,0,0,0,7.13-7.13A1.23,1.23,0,0,0,45.16,41.55ZM27.62,47.41a4.52,4.52,0,0,1-4.34-3.23h4.34A4.53,4.53,0,0,1,32,47.41ZM39.29,35.72h3.08A4.55,4.55,0,0,1,38,38.94H35A4.57,4.57,0,0,1,39.29,35.72ZM28.92,39a4.53,4.53,0,0,1-4.34-3.23h3.07A4.52,4.52,0,0,1,32,39Zm4.54-4.83a4.55,4.55,0,0,1,0-7,4.6,4.6,0,0,1,1.63,3.48A4.52,4.52,0,0,1,33.46,34.13Zm5.83,13.28H35a4.55,4.55,0,0,1,4.34-3.23h4.35A4.48,4.48,0,0,1,39.29,47.41Z"/><path class="cls-2" d="M33.46,19.29a1.32,1.32,0,1,0,0-2.63h0a1.32,1.32,0,0,0,0,2.63Z"/><path class="cls-3" d="M58.64,46.14a72.19,72.19,0,0,0,.81-11c0-7.53-1.25-14.27-3.46-19.17a4.69,4.69,0,0,0,1.92-5.07,4.69,4.69,0,0,0-5.74-3.3c-.86.22-1.71.44-2.57.61C45.07,2.91,39.36,0,33.46,0S21.86,2.91,17.31,8.19c-.86-.2-1.7-.38-2.57-.6A4.68,4.68,0,0,0,9,10.88a4.41,4.41,0,0,0,.47,3.51A4.38,4.38,0,0,0,10.93,16C8.75,20.83,7.53,27.57,7.5,35.13a71,71,0,0,0,.77,11l.59,3.17a50,50,0,0,0,1.41,5.31,8.44,8.44,0,0,0-3.87,9,1.16,1.16,0,0,0,.42.7,8.66,8.66,0,0,0,10.09,1,8.54,8.54,0,0,0,3.26-3.3,35.71,35.71,0,0,0,13.33,2.4,35.79,35.79,0,0,0,13.33-2.4,8.64,8.64,0,0,0,7.59,4.44,8.87,8.87,0,0,0,5.77-2.17,1.52,1.52,0,0,0,.43-.7,8.54,8.54,0,0,0-3.87-9,43.88,43.88,0,0,0,1.42-5.31ZM33.46,2.59c4.72,0,9.31,2.17,13.2,6.21A71.39,71.39,0,0,1,33.46,10,71.28,71.28,0,0,1,20.27,8.8C24.16,4.8,28.77,2.59,33.46,2.59ZM54.55,56.41a6,6,0,0,1,3.55,6.22,6.12,6.12,0,0,1-6.74.44,5.85,5.85,0,0,1-2.67-3.18,1.39,1.39,0,0,0-.73-.76,1.31,1.31,0,0,0-1.06,0,32.22,32.22,0,0,1-13.45,2.67A32.25,32.25,0,0,1,20,59.17a1.33,1.33,0,0,0-1.07,0,1.28,1.28,0,0,0-.72.76,6,6,0,0,1-2.67,3.18,6.14,6.14,0,0,1-6.75-.44,6,6,0,0,1,3.55-6.22,1.27,1.27,0,0,0,.7-1.63c-3.65-10-4.35-27.71.33-37.95a82.91,82.91,0,0,0,14.16,2.26,1.3,1.3,0,1,0,.2-2.6A80.69,80.69,0,0,1,13,14a2.1,2.1,0,0,1-1.29-1,2,2,0,0,1-.2-1.54,2.11,2.11,0,0,1,2.57-1.45A74,74,0,0,0,33.5,12.59a74.17,74.17,0,0,0,19.38-2.52,2.09,2.09,0,0,1,2.57,1.45,2.11,2.11,0,0,1-.21,1.54A2.05,2.05,0,0,1,54,14a80.51,80.51,0,0,1-14.72,2.45,1.3,1.3,0,0,0-1.2,1.4,1.28,1.28,0,0,0,1.29,1.2h.08a83.06,83.06,0,0,0,14.16-2.26c4.71,10.24,4,28,.3,38A1.24,1.24,0,0,0,54.55,56.41Z"/><rect class="cls-4" width="67" height="67"/></svg>