<svg id="Layer_1" data-name="Layer 1" xmlns="http://www.w3.org/2000/svg" xmlns:xlink="http://www.w3.org/1999/xlink" viewBox="0 0 67 67"><defs><style>.cls-1{fill:url(#linear-gradient);}.cls-2{fill:url(#linear-gradient-2);}.cls-3{fill:url(#linear-gradient-3);}.cls-4{fill:url(#linear-gradient-4);}.cls-5{fill:url(#linear-gradient-5);}.cls-6{fill:url(#linear-gradient-6);}.cls-7{fill:url(#linear-gradient-7);}.cls-8{fill:url(#linear-gradient-8);}.cls-9{fill:#fff;opacity:0.01;}</style><linearGradient id="linear-gradient" x1="16.19" y1="-16.81" x2="16.19" y2="-9.26" gradientTransform="matrix(1, 0, 0, -1, 0, 41)" gradientUnits="userSpaceOnUse"><stop offset="0.03" stop-color="#1377c3" stop-opacity="0.55"/><stop offset="1" stop-color="#47b5ab" stop-opacity="0.5"/></linearGradient><linearGradient id="linear-gradient-2" x1="52.28" y1="-18.56" x2="52.28" y2="-11.02" xlink:href="#linear-gradient"/><linearGradient id="linear-gradient-3" x1="42.97" y1="4.56" x2="42.97" y2="12.1" xlink:href="#linear-gradient"/><linearGradient id="linear-gradient-4" x1="23.2" y1="-5.92" x2="23.2" y2="1.62" xlink:href="#linear-gradient"/><linearGradient id="linear-gradient-5" x1="20.18" y1="10.89" x2="20.18" y2="13.41" xlink:href="#linear-gradient"/><linearGradient id="linear-gradient-6" x1="11.37" y1="-3.41" x2="11.37" y2="-0.89" xlink:href="#linear-gradient"/><linearGradient id="linear-gradient-7" x1="55.79" y1="8.92" x2="55.79" y2="11.44" xlink:href="#linear-gradient"/><linearGradient id="linear-gradient-8" x1="33.5" y1="-23.64" x2="33.5" y2="40.81" xlink:href="#linear-gradient"/></defs><path class="cls-1" d="M16.19,50.26A3.78,3.78,0,1,0,20,54,3.77,3.77,0,0,0,16.19,50.26Zm0,5a1.25,1.25,0,1,1,1.25-1.25A1.26,1.26,0,0,1,16.19,55.3Z"/><path class="cls-2" d="M52.28,59.56a3.77,3.77,0,1,0-3.77-3.77A3.77,3.77,0,0,0,52.28,59.56Zm0-5A1.25,1.25,0,1,1,51,55.77,1.25,1.25,0,0,1,52.28,54.53Z"/><path class="cls-3" d="M39.2,32.67A3.77,3.77,0,1,0,43,28.9,3.77,3.77,0,0,0,39.2,32.67Zm5,0A1.25,1.25,0,1,1,43,31.42,1.25,1.25,0,0,1,44.21,32.67Z"/><path class="cls-4" d="M23.2,39.38A3.77,3.77,0,1,0,27,43.15,3.77,3.77,0,0,0,23.2,39.38Zm0,5a1.25,1.25,0,1,1,1.24-1.25A1.24,1.24,0,0,1,23.2,44.41Z"/><path class="cls-5" d="M20.18,30.11a1.24,1.24,0,0,0,.88-.37,1.29,1.29,0,0,0,.38-.89,1.23,1.23,0,0,0-.38-.88,1.27,1.27,0,0,0-.88-.38,1.26,1.26,0,0,0-.89.38,1.24,1.24,0,0,0-.37.88,1.21,1.21,0,0,0,.37.89A1.16,1.16,0,0,0,20.18,30.11Z"/><path class="cls-6" d="M12.26,42.26a1.27,1.27,0,0,0-2.15.89,1.19,1.19,0,0,0,.38.88,1.22,1.22,0,0,0,1.77,0,1.27,1.27,0,0,0,.38-.88A1.39,1.39,0,0,0,12.26,42.26Z"/><path class="cls-7" d="M54.53,30.82a1.2,1.2,0,0,0,.37.88,1.29,1.29,0,0,0,.89.38,1.17,1.17,0,0,0,.88-.38,1.27,1.27,0,0,0,.38-.88,1.29,1.29,0,0,0-.38-.89,1.24,1.24,0,0,0-.88-.37,1.28,1.28,0,0,0-.89.37A1.32,1.32,0,0,0,54.53,30.82Z"/><path class="cls-8" d="M63.27,62a6.34,6.34,0,0,0,1-5.53L60.68,43.62h0l-2.33-8.28a1.26,1.26,0,0,0-2.43.69L57.3,41a11.25,11.25,0,0,0-12.73,2.18,8.64,8.64,0,0,1-11.73.44l6.54-23.23H51.56l1.67,6a1.26,1.26,0,1,0,2.43-.69L54,19.77a3.77,3.77,0,0,0-2-7H38.93a3.77,3.77,0,0,0-2,7L32.13,37,26.28,31.1V7.65A3.76,3.76,0,0,0,25.56.19H13.47a3.76,3.76,0,0,0-.72,7.46V31.06L4.47,39.33a14.84,14.84,0,0,0,0,21.05L6.05,62H2.11v2.67H66.92V62l-3.65,0ZM38.9,15.28H52a1.25,1.25,0,0,1,0,2.49H38.9a1.25,1.25,0,0,1-1.24-1.25A1.23,1.23,0,0,1,38.9,15.28ZM32.15,46.15a11.16,11.16,0,0,0,14.23-1.28,8.63,8.63,0,0,1,12-.25l3.49,12.5a3.91,3.91,0,0,1-.64,3.39A3.83,3.83,0,0,1,59,62H32a3.74,3.74,0,0,1-2.23-1.44,3.79,3.79,0,0,1-.64-3.39ZM12.18,4A1.25,1.25,0,0,1,13.42,2.7H25.51a1.25,1.25,0,0,1,0,2.49H13.42A1.24,1.24,0,0,1,12.18,4ZM23.74,7.73V18.44a2.65,2.65,0,0,1-3.4-.28,5.08,5.08,0,0,0-3.62-1.49,4.82,4.82,0,0,0-1.48.21V7.73ZM6.23,58.63a12.42,12.42,0,0,1,0-17.55l8.62-8.62a1.29,1.29,0,0,0,.38-.89V19.64a2.42,2.42,0,0,1,1.47-.46,2.59,2.59,0,0,1,1.86.77,5.07,5.07,0,0,0,3.62,1.49,5,5,0,0,0,1.54-.23V31.59a1.17,1.17,0,0,0,.38.88l7.23,7.23L26.64,56.49a6.38,6.38,0,0,0,1,5.53H9.6Z"/><rect class="cls-9" width="67" height="67"/></svg>