<svg id="Layer_1" data-name="Layer 1" xmlns="http://www.w3.org/2000/svg" xmlns:xlink="http://www.w3.org/1999/xlink" viewBox="0 0 67 67"><defs><style>.cls-1{fill:url(#linear-gradient);}.cls-2{fill:url(#linear-gradient-2);}.cls-3{fill:#fff;opacity:0.01;}</style><linearGradient id="linear-gradient" x1="28.79" y1="56.74" x2="28.79" y2="49.75" gradientUnits="userSpaceOnUse"><stop offset="0.03" stop-color="#1377c3" stop-opacity="0.55"/><stop offset="1" stop-color="#47b5ab" stop-opacity="0.5"/></linearGradient><linearGradient id="linear-gradient-2" x1="33.5" y1="66.04" x2="33.5" y2="0" xlink:href="#linear-gradient"/></defs><path class="cls-1" d="M28.79,49.75a3.5,3.5,0,1,0,3.49,3.49A3.5,3.5,0,0,0,28.79,49.75Zm0,4.48a1,1,0,1,1,1-1A1,1,0,0,1,28.79,54.23Z"/><path class="cls-2" d="M63.67,28.65H51.54a18.67,18.67,0,0,0-3.4-8,8.26,8.26,0,0,0-4.25-7.21,4.68,4.68,0,0,0-.36-4l1.13-1.13a3.95,3.95,0,0,0,0-5.61L43.13,1.17a3.95,3.95,0,0,0-5.61,0L36.37,2.3A4.91,4.91,0,0,0,34,1.68a4.64,4.64,0,0,0-3.36,1.39L26,7.69a1.27,1.27,0,0,0-.38.91,1.22,1.22,0,0,0,.38.86,1.26,1.26,0,0,0,.89.37,1.22,1.22,0,0,0,.88-.37l4.67-4.64a2.25,2.25,0,0,1,3.18,0L41,10.18a2.21,2.21,0,0,1,.54,2.3,8.84,8.84,0,0,0-1.76-.18,8.32,8.32,0,0,0-8.31,8.31,8.61,8.61,0,0,0,.24,2l-.08.08A4,4,0,0,0,30,24.31L27.9,26.44a2.28,2.28,0,0,1-1.59.67,2.17,2.17,0,0,1-1.58-.67l-5.36-5.35a2.28,2.28,0,0,1,0-3.22l5.34-5.62a1.24,1.24,0,0,0,.34-.9,1.31,1.31,0,0,0-.4-.87,1.21,1.21,0,0,0-.84-.34,1.3,1.3,0,0,0-.93.4l-5.34,5.63a4.79,4.79,0,0,0-.74,5.71L15.67,23a4,4,0,0,0,0,5.62l1.53,1.53a4,4,0,0,0,5.61,0L24,29a4.8,4.8,0,0,0,5.73-.76L30,28a4,4,0,0,0,3.58,2.27,4,4,0,0,0,3.35-1.81,8.32,8.32,0,0,0,2.91.53,8.14,8.14,0,0,0,3-.57,10.49,10.49,0,0,1-3.37,11.49H20.35a1.26,1.26,0,0,0,0,2.52h22a.86.86,0,0,1,.85.85v1.78a.85.85,0,0,1-.85.85H6.18a.85.85,0,0,1-.85-.85V43.29a.86.86,0,0,1,.85-.85h9.73a1.26,1.26,0,1,0,0-2.52H6.18A3.38,3.38,0,0,0,2.8,43.29v1.78a3.34,3.34,0,0,0,3.38,3.38h1.5v1a3.56,3.56,0,0,0,3.56,3.56h8.53v5H4.9a3.75,3.75,0,0,0-3.75,3.74v1.24H1.07v3H64.46v-3h-2a8,8,0,0,0,2.2-5.51V35.75a2.29,2.29,0,0,0,1.3-2v-2.8A2.27,2.27,0,0,0,63.67,28.65ZM22.28,58.05V48.43h13v9.62ZM33.53,24.46a1.65,1.65,0,1,1,0,3.29,1.65,1.65,0,1,1,0-3.29ZM34,20.65A5.79,5.79,0,1,1,37.53,26a4,4,0,0,0-3.3-3.69A5.65,5.65,0,0,1,34,20.65ZM41.89,7.53,38.31,3.94l1-1a1.43,1.43,0,0,1,1-.41,1.57,1.57,0,0,1,1,.41l1.53,1.53a1.43,1.43,0,0,1,.41,1,1.57,1.57,0,0,1-.41,1ZM50,31.13H63.39v2.32H49.94ZM62.09,46.51h-1a12.36,12.36,0,0,1-4.87-.71l-.12,0A10.11,10.11,0,0,0,51.72,45h-.5V36H62.09ZM51.24,56.7H53a1.26,1.26,0,0,0,0-2.52H51.24v-2.1H53a1.27,1.27,0,0,0,0-2.53H51.24v-2.1h.5a8.29,8.29,0,0,1,3.5.58,14.35,14.35,0,0,0,5.88.94h1v8.58a5.44,5.44,0,1,1-10.88,0ZM45.89,31.76A12.93,12.93,0,0,0,45,27.12a8.39,8.39,0,0,0,2.35-3A16.54,16.54,0,0,1,49,28.71a2.27,2.27,0,0,0-1.57,2.17v2.8a2.24,2.24,0,0,0,1.3,2v.2a16.29,16.29,0,0,1-3.21,6.22A3.36,3.36,0,0,0,43,40,12.93,12.93,0,0,0,45.89,31.76Zm-.23,13.86A18.76,18.76,0,0,0,48.74,42V57.54A8,8,0,0,0,50.93,63h-6.1V61.78A3.77,3.77,0,0,0,41.09,58H37.77V48.42h4.57A3.41,3.41,0,0,0,45.66,45.62ZM41.12,60.56a1.21,1.21,0,0,1,1.22,1.22V63H3.68V61.78A1.21,1.21,0,0,1,4.9,60.56ZM10.2,48.45h9.59v2.1H11.25a1,1,0,0,1-1.05-1ZM21,28.37a1.41,1.41,0,0,1-1,.42,1.53,1.53,0,0,1-1-.42l-1.53-1.53a1.49,1.49,0,0,1,0-2.06l1-1,3.57,3.59Z"/><rect class="cls-3" width="67" height="67"/></svg>