<svg id="Layer_1" data-name="Layer 1" xmlns="http://www.w3.org/2000/svg" xmlns:xlink="http://www.w3.org/1999/xlink" viewBox="0 0 67 67"><defs><style>.cls-1{fill:url(#linear-gradient);}.cls-2{fill:#fff;opacity:0.01;}</style><linearGradient id="linear-gradient" x1="33.45" y1="-266.73" x2="33.45" y2="-318.23" gradientTransform="translate(0 318.28)" gradientUnits="userSpaceOnUse"><stop offset="0.03" stop-color="#1377c3" stop-opacity="0.55"/><stop offset="1" stop-color="#47b5ab" stop-opacity="0.5"/></linearGradient></defs><path class="cls-1" d="M66.89,14.88V8.4H61.51V7.19h0V6.05A.7.7,0,0,1,61.74,6,3.24,3.24,0,0,0,63.66,3V2.55a.3.3,0,0,0,0-.16v0s0-.12,0-.17h0A3.17,3.17,0,0,0,61.81.06H48.25a3.4,3.4,0,0,0-1.61,1.69s0,0,0,.08,0,0,0,.08a3.64,3.64,0,0,0-.2,1.14,3.18,3.18,0,0,0,2.16,3V8.43H39.91V7.21h0V6.08a3.22,3.22,0,0,0,2.16-3V2.58a.35.35,0,0,0,0-.17v0s0-.12,0-.16h0A3.17,3.17,0,0,0,40.22.09H26.62s-.08,0-.16.08,0,0-.08,0,0,0-.08,0-.09,0-.13.08l0,0A3.31,3.31,0,0,0,24.75,3a3.19,3.19,0,0,0,2.17,3V8.39H18.28V7.17h0V6a3.22,3.22,0,0,0,2.16-3V2.54a.33.33,0,0,0,0-.17v0s0-.12,0-.16h0A3.18,3.18,0,0,0,18.59.05H5.08A3.26,3.26,0,0,0,3.23,3,3.18,3.18,0,0,0,5.39,6V8.38H0v6.5H5.39v20.5H0v6.47H5.39v3.22a6.48,6.48,0,0,0,13,0V41.85H27v3.22a6.48,6.48,0,0,0,13,0V41.85h8.64v3.22a6.48,6.48,0,0,0,13,0V41.85h5.34V35.38H61.49V14.88ZM60.41,4.08H49.6A1.05,1.05,0,0,1,48.55,3V2.74s0,0,0-.08v0s0,0,0-.08h0s0,0,0-.09h0s0,0,0-.08h0l.08-.08h0l.08-.08a1.21,1.21,0,0,1,.23-.16h0s0,0,.08,0h.09a.85.85,0,0,1,.31,0h10.8a1,1,0,0,1,1,1.05,1.1,1.1,0,0,1-.55,1A.91.91,0,0,1,60.41,4.08Zm-9.7,3.09h0V6.23h8.65V8.39H50.73V7.17Zm-21.6,0h0V6.23h8.64V7h0V8.39H29.11V7.17Zm9.7-5.26a1.24,1.24,0,0,1,.71.27l.08.09h0l.08.08h0s0,0,0,.08h0s0,0,0,.08h0s0,0,0,.08v0s0,0,0,.08V3a1,1,0,0,1-1.05,1H28A1,1,0,0,1,27,3V2.71s0,0,0-.08v0s0,0,0-.08h0s0,0,0-.08h0s0,0,0-.08h0l.08-.08h0l.08-.09A1,1,0,0,1,27.51,2h0s0,0,.08,0h.08s.09,0,.09,0h0c.08,0,.16,0,.23,0H38.81ZM7.52,7.21h0V6.27h8.65V8.43H7.52Zm9.73-5.3a1.21,1.21,0,0,1,.7.27h0A1,1,0,0,1,17.25,4h-11a1.06,1.06,0,0,1-1-1V2.68s0,0,0-.08v0s0,0,0-.08h0s0,0,0-.08h0s0,0,0-.08h0l.08-.08h0l.08-.08a1.16,1.16,0,0,1,.71-.27h8.72l2.16,0Zm-1.09,43.2a4.33,4.33,0,0,1-8.66,0V41.89h8.64l0,3.22Zm21.59,0a4.33,4.33,0,1,1-8.66,0V41.89h8.66Zm21.6,0a4.33,4.33,0,1,1-8.65,0V41.89h8.64v3.22Zm5.38-7.53v2.16H2.1V37.58ZM11.83,30a5.44,5.44,0,0,0-4.33-5.3v-5.5h8.64V35.38H7.52v-.13A5.34,5.34,0,0,0,11.83,30ZM7.52,33V26.94a3.24,3.24,0,0,1,2.16,3A3.2,3.2,0,0,1,7.52,33Zm0-16V14.88h8.64V17Zm10.8,18.38V14.92H27v20.5ZM37.75,24.61v2.27a5.37,5.37,0,0,0-3.23,8.52H29.09V24.61Zm-8.64-2.16V14.91h8.64v7.54Zm8.64,6.68v6.08a3.21,3.21,0,0,1,0-6.08Zm2.16,6.29V14.92h8.64v20.5ZM55,26.78a5.42,5.42,0,0,0-4.32-5.3V20.3h8.64V31.21a5.38,5.38,0,0,0-4.21,4.21H50.7V32.08A5.49,5.49,0,0,0,55,26.78Zm-4.31,3V23.72a3.23,3.23,0,0,1,0,6.09Zm0-11.67V14.92h8.64v3.22Zm8.64,15.32v2h-2A3,3,0,0,1,59.35,33.46ZM2.1,12.72V10.55H64.69v2.17Z"/><rect class="cls-2" width="67" height="67"/></svg>