<svg id="Layer_1" data-name="Layer 1" xmlns="http://www.w3.org/2000/svg" xmlns:xlink="http://www.w3.org/1999/xlink" viewBox="0 0 67 67"><defs><style>.cls-1{fill:url(#linear-gradient);}.cls-2{fill:url(#linear-gradient-2);}.cls-3{fill:url(#linear-gradient-3);}.cls-4{fill:#fff;opacity:0.01;}</style><linearGradient id="linear-gradient" x1="33.5" y1="61.88" x2="33.5" gradientUnits="userSpaceOnUse"><stop offset="0.03" stop-color="#1377c3" stop-opacity="0.55"/><stop offset="1" stop-color="#47b5ab" stop-opacity="0.5"/></linearGradient><linearGradient id="linear-gradient-2" x1="37.65" y1="32.89" x2="37.65" y2="26.4" xlink:href="#linear-gradient"/><linearGradient id="linear-gradient-3" x1="45.72" y1="52.82" x2="45.72" y2="34.92" xlink:href="#linear-gradient"/></defs><path class="cls-1" d="M63.81,58.8A3.67,3.67,0,0,0,64,57.7V33.37A3.58,3.58,0,0,0,61.66,30V28.16a2.43,2.43,0,0,0,1.81-2.34V23.28a2.41,2.41,0,0,0-2.41-2.42H53.71a24.19,24.19,0,0,0-1.16-3.34,3.87,3.87,0,0,0,1.82-1.64A3.92,3.92,0,0,0,53,10.47a4,4,0,0,0-2-.56h0a7.41,7.41,0,0,0-5.36-3.63,7.64,7.64,0,0,0-6.71-3.79,8.47,8.47,0,0,0-2.08.26,7.95,7.95,0,0,0-12,0,8.53,8.53,0,0,0-2.08-.26A7.59,7.59,0,0,0,16,6.25a7.54,7.54,0,0,0-5.35,3.63h0A4,4,0,0,0,8.26,17c-1.52,3.23-2.55,8.28-3,14.64A1.23,1.23,0,0,0,6.47,33h0a1.26,1.26,0,0,0,1.26-1.18c.42-6.14,1.42-11.06,2.83-13.91A82.73,82.73,0,0,0,30.8,20.4a81.53,81.53,0,0,0,19.29-2.32,20.38,20.38,0,0,1,1,2.68h-.53a2.42,2.42,0,0,0-2.42,2.42v2.57A2.4,2.4,0,0,0,50,28.09v1.66H46.72V26.13a3.64,3.64,0,0,0-3.65-3.65H32.21a3.65,3.65,0,0,0-3.65,3.65V49H8a120.15,120.15,0,0,1-.41-12.84,1.25,1.25,0,1,0-2.5-.07A120,120,0,0,0,5.6,50.33v0l0,.13c.13,1.37.28,2.78.47,4.17A3.3,3.3,0,0,0,3.36,57.9a3.41,3.41,0,0,0,.12.89H.93v3.08H66.07V58.8Zm-55-3.09c-.18-1.41-.36-2.81-.53-4.22H28.56v6.23a3.3,3.3,0,0,0,.15,1H6.65a.8.8,0,0,1-.78-.79.78.78,0,0,1,.78-.79h.86a1.3,1.3,0,0,0,1-.44A1.31,1.31,0,0,0,8.76,55.71ZM45.47,32.27H60.41a1.08,1.08,0,0,1,1.07,1.07v20.9h-13a1.25,1.25,0,1,0,0,2.5h13v.95a1.08,1.08,0,0,1-1.07,1.06H32.14l-.17,0-.12,0a1.07,1.07,0,0,1-.78-1v-.92H44.38a1.25,1.25,0,0,0,0-2.5H31.07V26.14A1.14,1.14,0,0,1,32.21,25H43.07a1.15,1.15,0,0,1,1.15,1.14V31A1.24,1.24,0,0,0,45.47,32.27Zm5.21-8.92H61v2.37H50.68Zm8.49,4.87V29.8H52.49V28.22ZM9.22,13.49a1.47,1.47,0,0,1,1.42-1.08l.28,0H11A77.3,77.3,0,0,0,30.8,15a78.86,78.86,0,0,0,19.81-2.59,1.49,1.49,0,0,1,.36,0,1.6,1.6,0,0,1,.76.2,1.4,1.4,0,0,1,.66.9,1.49,1.49,0,0,1-.14,1.09,1.7,1.7,0,0,1-.94.67A81.93,81.93,0,0,1,30.79,18a81.93,81.93,0,0,1-20.52-2.69A1.45,1.45,0,0,1,9.22,13.49ZM18,7.9A5.06,5.06,0,0,1,22.71,5a5.65,5.65,0,0,1,2.08.39,1.17,1.17,0,0,0,.45.09,1.32,1.32,0,0,0,1.09-.6,5.09,5.09,0,0,1,4.44-2.36,5.2,5.2,0,0,1,4.44,2.37,1.29,1.29,0,0,0,1.07.59,1.18,1.18,0,0,0,.46-.09A5.65,5.65,0,0,1,38.82,5,5.06,5.06,0,0,1,43.54,7.9a1.23,1.23,0,0,0,1.08.77,5.15,5.15,0,0,1,3.62,1.79,75.87,75.87,0,0,1-17.5,2.1,75.6,75.6,0,0,1-17.47-2.09,5.33,5.33,0,0,1,3.65-1.8A1.27,1.27,0,0,0,18,7.9Z"/><path class="cls-2" d="M39.58,32.89a3.23,3.23,0,0,0,3.23-3.23,3.29,3.29,0,0,0-3.23-3.26H35.75a3.25,3.25,0,1,0,0,6.49ZM35,29.66a.75.75,0,0,1,.76-.75h3.83a.76.76,0,1,1,0,1.51H35.74A.8.8,0,0,1,35,29.66Z"/><path class="cls-3" d="M42.1,35.44a8.63,8.63,0,0,1-1.65.18,3.8,3.8,0,0,1-1.83-.41l0,0a2.41,2.41,0,0,0-1-.27,1.73,1.73,0,0,0-.53.09,2.17,2.17,0,0,0-1.17,1.4c-.72,1.74-.33,4.11,1.07,6.5.55.9,2.56,3.87,5.65,4.64.11.23.24.46.37.68a14.3,14.3,0,0,0-1.33,2.94,1.23,1.23,0,0,0,.07,1,1.21,1.21,0,0,0,.71.61,1.09,1.09,0,0,0,.4.08A1.23,1.23,0,0,0,44,51.94a13.19,13.19,0,0,1,.74-1.81,4.87,4.87,0,0,0,2.79.86h0a7,7,0,0,0,3.19-1c3.32-2,6.21-7,4.83-10.33a2.19,2.19,0,0,0-1.18-1.4,1.5,1.5,0,0,0-.52-.1,2.4,2.4,0,0,0-1,.27l0,0a3.8,3.8,0,0,1-1.83.41,8.81,8.81,0,0,1-1.66-.18,6.53,6.53,0,0,0-.76-.08,6.44,6.44,0,0,0-5.43-3.29A5.16,5.16,0,0,0,42.1,35.44Zm6.81,10.21.67-.52.25-.18A1.24,1.24,0,0,0,50,43.19a1.23,1.23,0,0,0-1-.47,1.3,1.3,0,0,0-.81.29,5,5,0,0,1-.43.34l-.45.36-.06,0A26,26,0,0,0,44.65,46,3.64,3.64,0,0,1,45,43.09a4,4,0,0,1,3.24-2l.39,0,.19,0a11.34,11.34,0,0,0,2.15.23A6,6,0,0,0,53.31,41c.45,2-1.45,5.44-3.9,6.9a3.63,3.63,0,0,1-1.84.59A2.43,2.43,0,0,1,46.19,48,21.7,21.7,0,0,1,48.91,45.65ZM42.4,39.42a1.28,1.28,0,0,0-1,.45,1.26,1.26,0,0,0,.18,1.76c.29.24.61.47.91.7l.05,0A6.34,6.34,0,0,0,42,44.55a8.67,8.67,0,0,1-2.92-3,6,6,0,0,1-1-3.91,6.2,6.2,0,0,0,2.31.41,10.73,10.73,0,0,0,2.16-.24,3.31,3.31,0,0,1,.55-.05,3.78,3.78,0,0,1,2.74,1.32A7.83,7.83,0,0,0,44,40.32a8.8,8.8,0,0,1-.8-.63A1.25,1.25,0,0,0,42.4,39.42Z"/><rect class="cls-4" width="67" height="67"/></svg>