<?xml version="1.0" encoding="utf-8"?>
<!-- Generator: Adobe Illustrator 25.2.1, SVG Export Plug-In . SVG Version: 6.00 Build 0)  -->
<svg version="1.1" id="Layer_1" xmlns="http://www.w3.org/2000/svg" xmlns:xlink="http://www.w3.org/1999/xlink" x="0px" y="0px"
	 viewBox="0 0 44.9 37.4" style="enable-background:new 0 0 44.9 37.4;" xml:space="preserve">
<style type="text/css">
	.st0{fill:#383131;}
</style>
<g id="swirly-arrow" transform="matrix(-0.966, 0.259, -0.259, -0.966, 57.982, 76.055)">
	<path id="Path_1" class="st0" d="M38.4,73.3c-3.5-0.9-6.7-2.8-10.3-3.2c-0.7-0.1-0.8,0.8-0.5,1.2c0.5,0.5,1,1.3,1.7,1.9
		c-1.8,0.3-3.5,0.7-5.3,1.2c-1.6,0.3-3.3,0.2-4.9-0.5c0.4-0.4,0.7-0.8,1.1-1.3c2.6-3.7,4.2-15.7-2.5-16.6c-3.8-0.5-7.3,4.3-7.5,7.7
		c-0.3,4.5,2.4,8.3,6.1,10.6c-1.6,1-3.5,1.6-5.4,1.7c-4.2,0.2-7.1-2.6-8.6-6.3c-2.6-6.8-0.4-16.2,7-18.8c0.3-0.1,0.3-0.6-0.1-0.6
		C0,50.5-1.3,64.3,1,70.6c2.6,7.3,11.3,8.8,16.8,4.6c0.5,0.2,1,0.4,1.5,0.6c3.5,1.2,6.7-0.5,10.1-0.9c-0.4,0.9-0.9,1.7-1.5,2.5
		c-0.5,0.6-0.1,1.5,0.8,1.3c3.5-1,7-1.8,10-3.9C39.1,74.4,39.1,73.5,38.4,73.3z M17.6,73.3c-0.8-0.4-1.5-1-2.2-1.5
		C11,68.1,10.3,61.1,15.9,58c2.6-1.4,4.1,1.7,4.6,3.7c0.7,3,0.4,6.2-0.9,9C19,71.7,18.4,72.5,17.6,73.3z M31.5,74.2L31.5,74.2
		c0.1,0,0.1-0.1,0.1-0.2c-0.3-0.7-0.8-1.4-1.4-1.9c2.1,0.6,4,1.5,6.1,2.1c-2,1-4.1,1.8-6.2,2.3c0.3-0.7,0.8-1.4,1.3-2
		C31.5,74.5,31.5,74.3,31.5,74.2L31.5,74.2z"/>
</g>
</svg>
